<svg width="126" height="44" viewBox="0 0 126 44" fill="none" xmlns="http://www.w3.org/2000/svg">
<path d="M64.04 12.576V21H61.988V17.532H58.796V21H56.744V12.576H58.796V15.876H61.988V12.576H64.04ZM67.5733 14.22V15.924H70.3213V17.508H67.5733V19.356H70.6813V21H65.5213V12.576H70.6813V14.22H67.5733ZM74.0295 12.576V17.616C74.0295 18.12 74.1535 18.508 74.4015 18.78C74.6495 19.052 75.0135 19.188 75.4935 19.188C75.9735 19.188 76.3415 19.052 76.5975 18.78C76.8535 18.508 76.9815 18.12 76.9815 17.616V12.576H79.0335V17.604C79.0335 18.356 78.8735 18.992 78.5535 19.512C78.2335 20.032 77.8015 20.424 77.2575 20.688C76.7215 20.952 76.1215 21.084 75.4575 21.084C74.7935 21.084 74.1975 20.956 73.6695 20.7C73.1495 20.436 72.7375 20.044 72.4335 19.524C72.1295 18.996 71.9775 18.356 71.9775 17.604V12.576H74.0295ZM84.7705 21L83.0185 17.82H82.5265V21H80.4745V12.576H83.9185C84.5825 12.576 85.1465 12.692 85.6105 12.924C86.0825 13.156 86.4345 13.476 86.6665 13.884C86.8985 14.284 87.0145 14.732 87.0145 15.228C87.0145 15.788 86.8545 16.288 86.5345 16.728C86.2225 17.168 85.7585 17.48 85.1425 17.664L87.0865 21H84.7705ZM82.5265 16.368H83.7985C84.1745 16.368 84.4545 16.276 84.6385 16.092C84.8305 15.908 84.9265 15.648 84.9265 15.312C84.9265 14.992 84.8305 14.74 84.6385 14.556C84.4545 14.372 84.1745 14.28 83.7985 14.28H82.5265V16.368ZM90.3546 12.576V21H88.3026V12.576H90.3546ZM94.8897 21.084C94.2737 21.084 93.7217 20.984 93.2337 20.784C92.7457 20.584 92.3537 20.288 92.0577 19.896C91.7697 19.504 91.6177 19.032 91.6017 18.48H93.7857C93.8177 18.792 93.9257 19.032 94.1097 19.2C94.2937 19.36 94.5337 19.44 94.8297 19.44C95.1337 19.44 95.3737 19.372 95.5497 19.236C95.7257 19.092 95.8137 18.896 95.8137 18.648C95.8137 18.44 95.7417 18.268 95.5977 18.132C95.4617 17.996 95.2897 17.884 95.0817 17.796C94.8817 17.708 94.5937 17.608 94.2177 17.496C93.6737 17.328 93.2297 17.16 92.8857 16.992C92.5417 16.824 92.2457 16.576 91.9977 16.248C91.7497 15.92 91.6257 15.492 91.6257 14.964C91.6257 14.18 91.9097 13.568 92.4777 13.128C93.0457 12.68 93.7857 12.456 94.6977 12.456C95.6257 12.456 96.3737 12.68 96.9417 13.128C97.5097 13.568 97.8137 14.184 97.8537 14.976H95.6337C95.6177 14.704 95.5177 14.492 95.3337 14.34C95.1497 14.18 94.9137 14.1 94.6257 14.1C94.3777 14.1 94.1777 14.168 94.0257 14.304C93.8737 14.432 93.7977 14.62 93.7977 14.868C93.7977 15.14 93.9257 15.352 94.1817 15.504C94.4377 15.656 94.8377 15.82 95.3817 15.996C95.9257 16.18 96.3657 16.356 96.7017 16.524C97.0457 16.692 97.3417 16.936 97.5897 17.256C97.8377 17.576 97.9617 17.988 97.9617 18.492C97.9617 18.972 97.8377 19.408 97.5897 19.8C97.3497 20.192 96.9977 20.504 96.5337 20.736C96.0697 20.968 95.5217 21.084 94.8897 21.084ZM105.284 12.576V14.22H103.052V21H101V14.22H98.7685V12.576H105.284ZM105.966 16.776C105.966 15.944 106.146 15.204 106.506 14.556C106.866 13.9 107.366 13.392 108.006 13.032C108.654 12.664 109.386 12.48 110.202 12.48C111.202 12.48 112.058 12.744 112.77 13.272C113.482 13.8 113.958 14.52 114.198 15.432H111.942C111.774 15.08 111.534 14.812 111.222 14.628C110.918 14.444 110.57 14.352 110.178 14.352C109.546 14.352 109.034 14.572 108.642 15.012C108.25 15.452 108.054 16.04 108.054 16.776C108.054 17.512 108.25 18.1 108.642 18.54C109.034 18.98 109.546 19.2 110.178 19.2C110.57 19.2 110.918 19.108 111.222 18.924C111.534 18.74 111.774 18.472 111.942 18.12H114.198C113.958 19.032 113.482 19.752 112.77 20.28C112.058 20.8 111.202 21.06 110.202 21.06C109.386 21.06 108.654 20.88 108.006 20.52C107.366 20.152 106.866 19.644 106.506 18.996C106.146 18.348 105.966 17.608 105.966 16.776ZM118.503 21.084C117.887 21.084 117.335 20.984 116.847 20.784C116.359 20.584 115.967 20.288 115.671 19.896C115.383 19.504 115.231 19.032 115.215 18.48H117.399C117.431 18.792 117.539 19.032 117.723 19.2C117.907 19.36 118.147 19.44 118.443 19.44C118.747 19.44 118.987 19.372 119.163 19.236C119.339 19.092 119.427 18.896 119.427 18.648C119.427 18.44 119.355 18.268 119.211 18.132C119.075 17.996 118.903 17.884 118.695 17.796C118.495 17.708 118.207 17.608 117.831 17.496C117.287 17.328 116.843 17.16 116.499 16.992C116.155 16.824 115.859 16.576 115.611 16.248C115.363 15.92 115.239 15.492 115.239 14.964C115.239 14.18 115.523 13.568 116.091 13.128C116.659 12.68 117.399 12.456 118.311 12.456C119.239 12.456 119.987 12.68 120.555 13.128C121.123 13.568 121.427 14.184 121.467 14.976H119.247C119.231 14.704 119.131 14.492 118.947 14.34C118.763 14.18 118.527 14.1 118.239 14.1C117.991 14.1 117.791 14.168 117.639 14.304C117.487 14.432 117.411 14.62 117.411 14.868C117.411 15.14 117.539 15.352 117.795 15.504C118.051 15.656 118.451 15.82 118.995 15.996C119.539 16.18 119.979 16.356 120.315 16.524C120.659 16.692 120.955 16.936 121.203 17.256C121.451 17.576 121.575 17.988 121.575 18.492C121.575 18.972 121.451 19.408 121.203 19.8C120.963 20.192 120.611 20.504 120.147 20.736C119.683 20.968 119.135 21.084 118.503 21.084ZM56.396 34.776C56.396 33.944 56.576 33.204 56.936 32.556C57.296 31.9 57.796 31.392 58.436 31.032C59.084 30.664 59.816 30.48 60.632 30.48C61.632 30.48 62.488 30.744 63.2 31.272C63.912 31.8 64.388 32.52 64.628 33.432H62.372C62.204 33.08 61.964 32.812 61.652 32.628C61.348 32.444 61 32.352 60.608 32.352C59.976 32.352 59.464 32.572 59.072 33.012C58.68 33.452 58.484 34.04 58.484 34.776C58.484 35.512 58.68 36.1 59.072 36.54C59.464 36.98 59.976 37.2 60.608 37.2C61 37.2 61.348 37.108 61.652 36.924C61.964 36.74 62.204 36.472 62.372 36.12H64.628C64.388 37.032 63.912 37.752 63.2 38.28C62.488 38.8 61.632 39.06 60.632 39.06C59.816 39.06 59.084 38.88 58.436 38.52C57.796 38.152 57.296 37.644 56.936 36.996C56.576 36.348 56.396 35.608 56.396 34.776ZM69.8686 39.084C69.0766 39.084 68.3486 38.9 67.6846 38.532C67.0286 38.164 66.5046 37.652 66.1126 36.996C65.7286 36.332 65.5366 35.588 65.5366 34.764C65.5366 33.94 65.7286 33.2 66.1126 32.544C66.5046 31.888 67.0286 31.376 67.6846 31.008C68.3486 30.64 69.0766 30.456 69.8686 30.456C70.6606 30.456 71.3846 30.64 72.0406 31.008C72.7046 31.376 73.2246 31.888 73.6006 32.544C73.9846 33.2 74.1766 33.94 74.1766 34.764C74.1766 35.588 73.9846 36.332 73.6006 36.996C73.2166 37.652 72.6966 38.164 72.0406 38.532C71.3846 38.9 70.6606 39.084 69.8686 39.084ZM69.8686 37.212C70.5406 37.212 71.0766 36.988 71.4766 36.54C71.8846 36.092 72.0886 35.5 72.0886 34.764C72.0886 34.02 71.8846 33.428 71.4766 32.988C71.0766 32.54 70.5406 32.316 69.8686 32.316C69.1886 32.316 68.6446 32.536 68.2366 32.976C67.8366 33.416 67.6366 34.012 67.6366 34.764C67.6366 35.508 67.8366 36.104 68.2366 36.552C68.6446 36.992 69.1886 37.212 69.8686 37.212ZM77.3702 37.416H80.0582V39H75.3182V30.576H77.3702V37.416ZM83.089 37.416H85.777V39H81.037V30.576H83.089V37.416ZM88.8077 32.22V33.924H91.5557V35.508H88.8077V37.356H91.9157V39H86.7557V30.576H91.9157V32.22H88.8077ZM92.8999 34.776C92.8999 33.944 93.0799 33.204 93.4399 32.556C93.7999 31.9 94.2999 31.392 94.9399 31.032C95.5879 30.664 96.3199 30.48 97.1359 30.48C98.1359 30.48 98.9919 30.744 99.7039 31.272C100.416 31.8 100.892 32.52 101.132 33.432H98.8759C98.7079 33.08 98.4679 32.812 98.1559 32.628C97.8519 32.444 97.5039 32.352 97.1119 32.352C96.4799 32.352 95.9679 32.572 95.5759 33.012C95.1839 33.452 94.9879 34.04 94.9879 34.776C94.9879 35.512 95.1839 36.1 95.5759 36.54C95.9679 36.98 96.4799 37.2 97.1119 37.2C97.5039 37.2 97.8519 37.108 98.1559 36.924C98.4679 36.74 98.7079 36.472 98.8759 36.12H101.132C100.892 37.032 100.416 37.752 99.7039 38.28C98.9919 38.8 98.1359 39.06 97.1359 39.06C96.3199 39.06 95.5879 38.88 94.9399 38.52C94.2999 38.152 93.7999 37.644 93.4399 36.996C93.0799 36.348 92.8999 35.608 92.8999 34.776ZM108.449 30.576V32.22H106.217V39H104.165V32.22H101.933V30.576H108.449ZM113.462 39.084C112.67 39.084 111.942 38.9 111.278 38.532C110.622 38.164 110.098 37.652 109.706 36.996C109.322 36.332 109.13 35.588 109.13 34.764C109.13 33.94 109.322 33.2 109.706 32.544C110.098 31.888 110.622 31.376 111.278 31.008C111.942 30.64 112.67 30.456 113.462 30.456C114.254 30.456 114.978 30.64 115.634 31.008C116.298 31.376 116.818 31.888 117.194 32.544C117.578 33.2 117.77 33.94 117.77 34.764C117.77 35.588 117.578 36.332 117.194 36.996C116.81 37.652 116.29 38.164 115.634 38.532C114.978 38.9 114.254 39.084 113.462 39.084ZM113.462 37.212C114.134 37.212 114.67 36.988 115.07 36.54C115.478 36.092 115.682 35.5 115.682 34.764C115.682 34.02 115.478 33.428 115.07 32.988C114.67 32.54 114.134 32.316 113.462 32.316C112.782 32.316 112.238 32.536 111.83 32.976C111.43 33.416 111.23 34.012 111.23 34.764C111.23 35.508 111.43 36.104 111.83 36.552C112.238 36.992 112.782 37.212 113.462 37.212ZM123.208 39L121.456 35.82H120.964V39H118.912V30.576H122.356C123.02 30.576 123.584 30.692 124.048 30.924C124.52 31.156 124.872 31.476 125.104 31.884C125.336 32.284 125.452 32.732 125.452 33.228C125.452 33.788 125.292 34.288 124.972 34.728C124.66 35.168 124.196 35.48 123.58 35.664L125.524 39H123.208ZM120.964 34.368H122.236C122.612 34.368 122.892 34.276 123.076 34.092C123.268 33.908 123.364 33.648 123.364 33.312C123.364 32.992 123.268 32.74 123.076 32.556C122.892 32.372 122.612 32.28 122.236 32.28H120.964V34.368Z" fill="black"/>
<rect width="44" height="44" fill="#F52A2A"/>
</svg>
